<svg width="267" height="189" viewBox="0 0 267 189" fill="none" xmlns="http://www.w3.org/2000/svg">
<path fill-rule="evenodd" clip-rule="evenodd" d="M105.403 4.20299V4.20093H103.749V185.56H105.403V185.554C131.836 185.212 148.869 170.148 159.33 151.449C160.247 149.81 161.113 148.144 161.931 146.457C164.191 144.345 166.256 142.125 168.139 139.829C180.194 125.131 184.718 107.387 184.977 95.1213L184.978 95.1015L184.977 95.0817C184.718 82.7779 180.353 64.3919 168.38 49.1062C166.173 46.2889 163.709 43.5791 160.968 41.0336C160.477 40.0749 159.969 39.1242 159.445 38.1829C149.021 19.453 131.986 4.40488 105.403 4.20299ZM157.363 37.9161C147.117 20.1437 130.724 6.16073 105.403 5.96381V21.8146L106.206 21.8103C128.797 21.6877 145.394 28.2833 157.363 37.9161ZM105.403 167.072V183.793C131.123 183.452 147.674 168.844 157.909 150.548C158.116 150.179 158.32 149.808 158.521 149.436C146.577 159.187 129.877 166.007 107.037 166.189L105.403 167.072ZM107.037 164.429C131.591 164.23 148.818 156.261 160.605 145.352C168.95 127.993 172.146 108.393 172.351 94.8824C172.137 80.7805 168.749 60.0495 159.657 42.1543C147.941 31.376 131.009 23.6152 107.037 23.5696V164.429ZM163.951 142.026C171.047 125.461 173.815 107.551 174.005 94.8965L174.005 94.8825L174.005 94.8684C173.807 81.6827 170.881 62.7853 163.183 45.6497C164.577 47.138 165.884 48.6696 167.109 50.2339C178.801 65.1593 183.066 83.1317 183.323 95.1015C183.068 107.008 178.656 124.329 166.893 138.671C165.96 139.809 164.98 140.929 163.951 142.026Z" fill="white"/>
<path d="M103.749 185.56H105.403V185.554C131.836 185.212 148.869 170.148 159.33 151.449C160.247 149.81 161.113 148.144 161.931 146.457C164.191 144.345 166.256 142.125 168.139 139.829C180.194 125.131 184.718 107.387 184.977 95.1213L184.978 95.1015L184.977 95.0817C184.718 82.7779 180.353 64.3919 168.38 49.1062C166.173 46.2889 163.709 43.5791 160.968 41.0336C160.477 40.0749 159.969 39.1242 159.445 38.1829C149.021 19.453 131.986 4.40488 105.403 4.20299V4.20093H103.749V185.56ZM103.749 185.56L7 186L262.654 3.10339M182.72 2C183.96 4.20093 265 81.5729 265 81.5729M102.095 3.21886L183.96 2.88038M105.403 5.96381C130.724 6.16073 147.117 20.1437 157.363 37.9161C145.394 28.2833 128.797 21.6877 106.206 21.8103L105.403 21.8146V5.96381ZM105.403 183.793V167.072L107.037 166.189C129.877 166.007 146.577 159.187 158.521 149.436C158.32 149.808 158.116 150.179 157.909 150.548C147.674 168.844 131.123 183.452 105.403 183.793ZM160.605 145.352C148.818 156.261 131.591 164.23 107.037 164.429V23.5696C131.009 23.6152 147.941 31.376 159.657 42.1543C168.749 60.0495 172.137 80.7805 172.351 94.8824C172.146 108.393 168.95 127.993 160.605 145.352ZM163.951 142.026C171.047 125.461 173.815 107.551 174.005 94.8965L174.005 94.8825L174.005 94.8684C173.807 81.6827 170.881 62.7853 163.183 45.6497C164.577 47.138 165.884 48.6696 167.109 50.2339C178.801 65.1593 183.066 83.1317 183.323 95.1015C183.068 107.008 178.656 124.329 166.893 138.671C165.96 139.809 164.98 140.929 163.951 142.026Z" stroke="white" stroke-width="4"/>
</svg>
