<svg xmlns="http://www.w3.org/2000/svg" viewBox="0 0 996.85 198.86"><title>Asset 1</title><g id="Layer_2" data-name="Layer 2"><g id="Layer_1-2" data-name="Layer 1"><path d="M742.51,46c-5.35,0-6-1.56-6-6.72V25.79s0-.54.48-.54h4.26c3.08,0,5.28,1.26,5.63,6.38.05.79,2,.81,2-.11V16.58c0-.5-1.7-.6-1.75,0-.5,5.13-2.59,6.24-6,6.24H737c-.49,0-.5-.59-.5-.59V4.67c0-.53.36-.53.67-.53h10.41c2.74,0,6.87.51,8.26,9.1.21,1.3,2.5,1,2.49.17,0,0-.26-8.41-.21-10.59a.72.72,0,0,0-.77-.82H723.49c-.69,0-.74,2,0,2,4.55,0,5.69.66,5.69,6.58V39.39c0,5.92-1.15,6.6-6.61,6.6-.74,0-.68,2,0,2h20.08C743.29,48,743.34,46,742.51,46Z"/><path d="M696.4.52C707.9.52,721,8.6,721,24.19s-10.63,24.87-24.44,24.87c-15.71,0-25.38-11.45-25.38-24.87C671.19,17.19,676.58.52,696.4.52ZM679.53,25c0,14.72,6.2,21.94,16.35,21.94,7.89,0,17-4.39,17-22.68,0-20.2-11.09-21.59-17.07-21.59C690.1,2.65,679.53,5.9,679.53,25Z"/><path d="M575.25,10.15c0-4.76-.21-6.18,6.5-6.18.69,0,.69-1.9,0-1.9H561.38c-.65,0-.7,1.9,0,1.9,6.21,0,6.35,1.23,6.35,6.19V39.93c0,3.75,0,6.19-6.35,6.19-.7,0-.65,1.9,0,1.9h38.19c.72,0,.72-.43.72-.74l.49-12.18c-.06-1-1.95-.67-2.06-.18-.62,1.45-1.79,7.7-4.6,9.62A7.61,7.61,0,0,1,589,46.09l-8,0c-5.46-.19-5.79-1.75-5.79-6.19Z"/><path d="M631.9,48H604.07c-.65,0-.71-1.91,0-1.91,6.4,0,6.84-2.45,6.84-6.22V10.42c0-5.28-.21-6.26-6.15-6.26-.71,0-.65-1.87,0-1.87H624c4.35,0,28.13,1.23,28.13,24.51C652.17,45.73,636.19,48,631.9,48ZM626.12,4.29c-2.93,0-4.17,0-5.36,0-1.73,0-2,.25-2,1.83V42.39c0,3.32,3.87,3.51,5.24,3.62a31.63,31.63,0,0,0,8.7-.47c5-1.09,11.26-5.16,11.26-18.23C643.92,3.58,626.12,4.29,626.12,4.29Z"/><path d="M485.24,0c12.12,0,25,8,25,24,0,15.55-11.75,24.87-25,24.87S460.55,39.4,460.55,24C460.55,10.4,471.86,0,485.24,0ZM468.61,24c0,18.63,8.17,22.73,16.63,22.73C493.13,46.75,502,42.3,502,24c0-21-13.35-21.71-16.72-21.71C480,2.31,468.61,4.33,468.61,24Z"/><path d="M541.1,3.69a11.4,11.4,0,0,1,7.12,10.82c0,8.49-11.74,11.57-11.54,11.36-.24.25,0,.41.11.51.92.73,5.6,5.64,6.39,6.59,4,4.79,4.72,5.89,5.88,7.39,2.49,3.21,5.28,5.53,8.89,5.76.67,0,.94,1.9,0,1.9H547.3c-.26,0-.26.09-.67-.3-4.06-3.8-8.64-9.54-13.13-15.55-2.13-2.85-3.47-5.23-6.6-5.23-.48,0-.11,0-1.17,0-.53,0-.62.07-.62.72V39.86c0,4.51,1.23,6.24,6.71,6.24.7,0,.69,1.92,0,1.92H511.67c-.66,0-.71-1.92,0-1.92,5,0,6.15-1.82,6.15-6.25V10.3c0-4.78-.08-6.25-6.24-6.25-.71,0-.66-1.87,0-1.87h20.5A20.59,20.59,0,0,1,541.1,3.69ZM526,4.32s-.89-.12-.89.9V23.67c0,.71.26.86.74.86,5.2,0,14.58,1.15,14.58-10.16C540.4,3.28,530.62,4.32,526,4.32Z"/><path d="M444.24,48.41c-.34.91-2.64.73-2.93-.17C440.9,47,431.06,16.5,430.83,15.73c-.16-.56-.62-.06-.62-.06s-10.07,31.08-10.87,32.47c-.68,1.16-2.76.72-2.93,0-.3-1.27-10.55-37.07-10.55-37.07-1.33-5.39-3.59-7-5.38-7-.7,0-.65-1.89,0-1.89h15c.68,0,.69,1.89,0,1.89-4,0-3.6,3.29-2.44,5.87,0,0,7.25,24.84,7.38,25.38.07.29.52.33.61.07s9.9-31.24,10.77-32.66a1.7,1.7,0,0,1,2.48-.06c.23.5,10.83,32.34,10.94,32.78s.46.22.51,0,7.84-24.89,7.84-26.88c0-2.72-1.78-4.51-4.08-4.51-.57,0-.65-1.89,0-1.89h12.08c.68,0,.76,1.82,0,1.89-3.07.28-4.53,4.26-5,5.46C456.35,10.26,444.64,47.35,444.24,48.41Z"/><path d="M272.21,48.1h-22c-.68,0-.74-2,0-2,5.47,0,7.76-.68,7.76-6.6V4.64c0,.37.09-.41-.43-.41h-8.65c-2.16,0-6.63-.72-7.51,8.29-.08.79-2.52,1-2.52-.08s.15-7.8.19-9.66c0-.45.15-.7.76-.7h43.77c.56,0,.74.37.73.81,0,2.18.21,9.69.21,9.69,0,.79-2.28,1.13-2.49-.17-1.38-8.59-4.6-8.2-7.34-8.2h-8.87c-.33,0-.43.2-.43.52V39.59c0,5.92,2.87,6.51,6.78,6.51C272.94,46.1,272.94,48.1,272.21,48.1Z"/><path d="M302.08,25.31h21.27A.63.63,0,0,1,324,26c0-.65,0,13.37,0,13.37,0,5.92-1.92,6.63-5.84,6.63-.73,0-.72,2,0,2h19.89c.68,0,.74-2,0-2-5.47,0-6.61-.68-6.61-6.6V10.61c0-5.92,1.06-6.52,6.53-6.52.74,0,.68-2,0-2H318c-.72,0-.72,2,0,2,3.92,0,6,.39,6,6.32,0,0,0,11.11,0,11.34s-.08.5-.54.5H302c-.65,0-.57-.37-.57-.53V10.5c0-5.92,1.86-6.43,5.78-6.43.73,0,.72-2,0-2h-20c-.68,0-.74,2,0,2,5.47,0,6.7.6,6.7,6.52V39.41c0,5.92-1.15,6.6-6.61,6.6-.74,0-.68,2,0,2h19.89c.72,0,.73-2,0-2-3.92,0-5.81-.59-5.81-6.51,0,0,0-13.3,0-13.56A.57.57,0,0,1,302.08,25.31Z"/><path d="M366,4.25c2.74,0,6.87-.39,8.26,8.2.21,1.3,2.5,1,2.49.17,0,0-.26-7.51-.21-9.69a.72.72,0,0,0-.77-.82H343.3c-.68,0-.74,2,0,2,4.55,0,5.23.66,5.23,6.58v28.7c0,5.92-1.15,6.61-6.61,6.61-.74,0-.68,2,0,2h37.7c.4,0,.73-.17.73-.85s.59-10.21.78-12.79c.07-1-1.93-.89-2.15-.11-1.75,6.1-4.12,11.26-11.86,11.26H362.4c-4.94,0-6.13-.68-6.13-6.26V25.33s0-.54.48-.54h4.95c2.6,0,4.84,1.34,5.17,6.16.05.79,2,.81,2-.11V16.12c0-.5-1.7-.59-1.75,0-.5,5.13-2.12,6.24-5.5,6.24h-4.89c-.49,0-.5-.59-.5-.59v-17c0-.53.36-.53.67-.53Z"/><path d="M96,91.84c0-.66.86-.51.86-.51S174.2,197,174.43,197.2a2,2,0,0,0,1.77.78h8.46a.68.68,0,0,0,.76-.69V91c0-13.64,15.47-14.12,16.91-14.12,2.22,0,2.8-6.17.35-6.17H159c-2.12,0-2.19,6.06.93,6.06,15.34,0,16.27,13.2,16.27,13.2s.52,73.07,0,73.81-1.11-.11-1.11-.11L107.45,71a1,1,0,0,0-1.11-.38H70.62c-1.78,0-1.93,5.43,0,5.43,17,0,16.43,3.19,16.43,16.74V177c0,10.19-10.16,14-16.9,14-1.93,0-1.78,5.2,0,5.2H112.2c1.88,0,1.71-5.2-.17-5.2-6.84,0-16-3.77-16-13.71,0,0,0-85.18,0-85.43"/><path d="M521.67,73.86c4.25,1.44,22.21,9.62,22.21,29.06,0,26.35-28.87,31.55-29.57,32.29s-.07,1.15.29,1.37c1.92,1.14,3.73,1.32,6.41,2.8a24.2,24.2,0,0,1,7.34,6c10.72,13,22.23,30.69,25.37,34.74,6.17,7.95,7.79,10.17,18.66,10.86,1.81.12,1.92,5.14-.53,5.14H543.54c-.7,0-.65.19-1.81-.8-10.22-8.75-19.3-28.92-31.47-45.19-5.77-7.71-8.71-11.73-17.19-11.73h-9.83c-1.44,0-1.68.19-1.68,1.94v33.87c0,13-1.43,16.92,16.92,16.92,1.88,0,1.88,5.2,0,5.2H445.17c-1.78,0-1.93-5.2,0-5.2,17.93,0,16.66-3.92,16.66-16.93V94.09c0-12.94-.21-16.93-16.9-16.93-1.93,0-1.78-5.66,0-5.66h60.34S514.32,71.36,521.67,73.86Zm-34.32,3.76c-3.62,0-6.81-.32-6.81,2.47v50c0,1.94.71,2.34,2,2.34,14.64,0,38,4.21,38-28C520.59,76.6,498.44,77.62,487.35,77.62Z"/><path d="M293.21,196.27H237.81c-1.78,0-1.93-5.2,0-5.2,17,0,17.83-3.38,17.83-16.93V78.52c0-.86-.31-1.24-1.35-1.24H234.45c-3.73,0-15.69-2.65-18.76,23-.25,2.05-7.35,2.44-7.35-.33s.61-22.56.72-27.37c0-1.17.39-1.81,2-1.81H322.39c1.46,0,1.68.95,1.66,2.1-.12,5.66.78,27,.78,27,0,2.29-6.92,3.16-7.39.25-3.68-22.6-10.66-22.89-19.06-22.89H277c-.85,0-1.13.51-1.13,1.36v95.54c0,13-1,16.91,17.39,16.91C295.1,191.07,295.09,196.27,293.21,196.27Z"/><path d="M38.71,92.6c0-13-1.19-16.91,17.16-16.91,1.88,0,1.88-5.2,0-5.2H1.39c-1.78,0-1.93,5.2,0,5.2,17,0,17.36,3.38,17.36,16.93v81.44c0,13.55-.37,16.93-17.36,16.93-1.93,0-1.78,5.2,0,5.2H55.86c1.88,0,1.88-5.2,0-5.2-18.35,0-17.16-3.89-17.16-16.92Z"/><path d="M615.55,92.76c0-13-1.19-16.91,17.16-16.91,1.88,0,1.88-5.2,0-5.2H578.24c-1.78,0-1.92,5.2,0,5.2,17,0,17.36,3.38,17.36,16.93v81.32c0,13.55-.37,16.93-17.36,16.93-1.92,0-1.78,5.2,0,5.2h54.48c1.88,0,1.88-5.2,0-5.2-18.35,0-17.16-3.89-17.16-16.92Z"/><path d="M705.35,68.81c32.24,0,66.39,21.22,66.39,63.89,0,41.38-31.25,66.16-66.39,66.16-35.28,0-65.7-25.24-65.7-66.16C639.65,96.47,669.77,68.81,705.35,68.81ZM661.1,132.69c0,49.57,21.75,60.48,44.26,60.48,21,0,44.49-11.82,44.49-60.48,0-55.75-35.51-57.75-44.49-57.75C691.51,74.94,661.1,80.33,661.1,132.69Z"/><path d="M856.72,73.77c4.25,1.44,22.21,9.62,22.21,29.06,0,26.35-28.87,31.55-29.57,32.29s-.07,1.15.29,1.37c1.92,1.14,3.73,1.32,6.41,2.8a24.21,24.21,0,0,1,7.34,6c10.72,13,22.23,30.69,25.38,34.75,6.17,7.94,7.79,10.42,18.66,11.1,1.81.11,1.92,5.14-.52,5.14H878.58c-.7,0-.66.19-1.81-.8-10.22-8.75-19.3-29.17-31.47-45.44-5.77-7.71-8.71-11.73-17.19-11.73h-9.83c-1.44,0-1.68.19-1.68,1.94v33.87c0,13-1.43,16.91,16.92,16.91,1.88,0,1.88,5.2,0,5.2H780.22c-1.78,0-1.93-5.2,0-5.2,17.93,0,16.66-3.92,16.66-16.93V94c0-12.94-.21-16.93-16.9-16.93-1.93,0-1.78-5.66,0-5.66h60.34S849.37,71.27,856.72,73.77Zm-33.07,3.58c-3.62,0-6.81-.32-6.81,2.47v50c0,1.94.71,2.34,2,2.34,14.64,0,38,4.21,38-27.95C856.89,76.32,834.74,77.34,823.65,77.34Z"/><path d="M989.39,104.66c0,1.5-6.27,1.44-6.49-.34-1.84-15-13.46-29-30.13-29-12.67,0-20.23,7.13-20.23,18.84,0,11.15,12.46,18.55,28,26.2,20.21,10,36.3,15.75,36.3,42,0,17.06-13,35.66-39.23,35.66-15.81,0-26.8-9.17-31.46-11.62-.43-.23-1.26-.34-1.59.07a33.56,33.56,0,0,0-3.45,7.67c-.46,1.44-5.76,1.56-5.76-.56v-36c0-1.32,6.25-1.59,6.25.22,0,4.45,7.15,33.3,36,33.3,12.74,0,24.12-9.25,24.12-20.39,0-15.63-6.91-20.52-28.61-32.07S917.77,123,917.77,100.94c0-17.3,12.84-31.45,36.28-31.45,9.77,0,16.45,2.56,25.69,7.91a1.18,1.18,0,0,0,1.25,0c.88-.44,1.93-1.89,3.53-5.15.4-.8,4.81-1.1,4.81.17C989.32,73.92,989.39,101.94,989.39,104.66Z"/><path d="M393.35,76.58c7.78,0,22,2.13,25.51,23.71.46,2.88,6.81,1.94,6.78.46,0,0-2.58-21.6-3.57-27.78-.19-1.2-.57-2.24-2.1-2.24H330.83c-1.87,0-2,5.69,0,5.69,14.86,0,16.8,1.41,16.8,15.42v81.64c0,15.23-2.61,16.62-16.88,17.21-1.79.07-1.64,5.54,0,5.54h99.57c1.1,0,2-.46,2-2.31,0-1.59,2.07-26.69,2.6-33.74.15-2-5.67-1.81-6.1-.3-4.77,16.64-11.45,30.71-32.56,30.71l-11.49,0c-16.24,0-18.1-8.77-18.1-18.22V135s0-1.46,1.31-1.46h13.49c8.76,0,14.79,6.37,14.78,17.47,0,1.7,5.8,1.76,5.8-.31v-40.8c0-1.37-5.41-1.51-5.59.11-1.41,12.47-7,16.89-15.12,16.89l-13.32,0c-1.34,0-1.35-1.61-1.35-1.61l.23-46.85a1.9,1.9,0,0,1,2.05-1.9Z"/></g></g></svg>